<svg width="62" height="62" viewBox="0 0 62 62" fill="none" xmlns="http://www.w3.org/2000/svg">
<path d="M20.15 35.6498V24.7998" stroke="#FFCC00" stroke-width="3" stroke-linecap="round" stroke-linejoin="round"/>
<path d="M20.5375 46.4998C23.3197 46.4998 25.5751 44.2444 25.5751 41.4623C25.5751 38.6801 23.3197 36.4248 20.5375 36.4248C17.7554 36.4248 15.5 38.6801 15.5 41.4623C15.5 44.2444 17.7554 46.4998 20.5375 46.4998Z" stroke="#FFCC00" stroke-width="3" stroke-linecap="round" stroke-linejoin="round"/>
<path d="M20.15 24.8C22.7181 24.8 24.7999 22.7181 24.7999 20.15C24.7999 17.5818 22.7181 15.5 20.15 15.5C17.5818 15.5 15.5 17.5818 15.5 20.15C15.5 22.7181 17.5818 24.8 20.15 24.8Z" stroke="#FFCC00" stroke-width="3" stroke-linecap="round" stroke-linejoin="round"/>
<path d="M41.85 24.8C44.4182 24.8 46.5 22.7181 46.5 20.15C46.5 17.5818 44.4182 15.5 41.85 15.5C39.2819 15.5 37.2001 17.5818 37.2001 20.15C37.2001 22.7181 39.2819 24.8 41.85 24.8Z" stroke="#FFCC00" stroke-width="3" stroke-linecap="round" stroke-linejoin="round"/>
<path d="M20.3567 35.6497C21.0542 32.9372 23.5342 30.9223 26.4533 30.9481L31.775 30.9739C35.8308 30.9997 39.2925 28.3905 40.5584 24.748" stroke="#FFCC00" stroke-width="3" stroke-linecap="round" stroke-linejoin="round"/>
<path d="M23.25 5.16699H38.75C51.6666 5.16699 56.8333 10.3337 56.8333 23.2503V38.7503C56.8333 51.667 51.6666 56.8337 38.75 56.8337H23.25C10.3333 56.8337 5.16663 51.667 5.16663 38.7503V23.2503C5.16663 10.3337 10.3333 5.16699 23.25 5.16699Z" stroke="#FFCC00" stroke-width="3" stroke-linecap="round" stroke-linejoin="round"/>
</svg>
