<svg width="48" height="48" viewBox="0 0 48 48" fill="none" xmlns="http://www.w3.org/2000/svg">
<path d="M36 32.0195C37.1 32.0195 38 32.9195 38 34.0195V35.9995C38 40.3995 35 43.9995 30 43.9995H18C13 43.9995 10 40.3995 10 35.9995V34.0195C10 32.9195 10.9 32.0195 12 32.0195H36Z" fill="#00C7BE"/>
<path d="M38 12V27C38 28.1 37.1 29 36 29H12C10.9 29 10 28.1 10 27V12C10 7.6 13 4 18 4H30C35 4 38 7.6 38 12Z" fill="#00C7BE"/>
<path d="M6 41.5C5.18 41.5 4.5 40.82 4.5 40V8C4.5 7.18 5.18 6.5 6 6.5C6.82 6.5 7.5 7.18 7.5 8V40C7.5 40.82 6.82 41.5 6 41.5Z" fill="#00C7BE"/>
<path d="M42 41.5C41.18 41.5 40.5 40.82 40.5 40V8C40.5 7.18 41.18 6.5 42 6.5C42.82 6.5 43.5 7.18 43.5 8V40C43.5 40.82 42.82 41.5 42 41.5Z" fill="#00C7BE"/>
</svg>
